<?xml version="1.0" standalone="no"?>
<!DOCTYPE svg PUBLIC "-//W3C//DTD SVG 20010904//EN"
 "http://www.w3.org/TR/2001/REC-SVG-20010904/DTD/svg10.dtd">
<svg version="1.0" xmlns="http://www.w3.org/2000/svg"
 width="948.000000pt" height="948.000000pt" viewBox="0 0 948.000000 948.000000"
 preserveAspectRatio="xMidYMid meet">
<metadata>
Created by potrace 1.11, written by Peter Selinger 2001-2013
</metadata>
<g transform="translate(0.000000,948.000000) scale(0.100000,-0.100000)"
fill="#000000" stroke="none">
<path d="M4663 9346 c-10 -18 -15 -19 -51 -8 -21 7 -70 12 -107 12 -111 0
-175 -51 -175 -140 0 -81 33 -113 171 -170 87 -36 109 -54 109 -90 0 -34 -17
-49 -64 -57 -79 -13 -154 26 -182 94 -24 56 -34 39 -27 -49 3 -46 7 -85 9 -87
3 -3 10 4 18 15 13 17 18 18 60 6 68 -18 174 -15 216 6 76 38 103 134 58 213
-22 40 -51 58 -172 106 -38 16 -75 38 -83 49 -13 20 -12 25 10 50 48 55 161
28 202 -49 11 -20 23 -37 28 -37 9 0 8 62 -1 115 -7 36 -9 38 -19 21z"/>
<path d="M4874 9336 c-46 -20 -74 -65 -74 -121 0 -80 22 -107 153 -179 37 -21
75 -50 84 -63 15 -22 15 -28 2 -51 -44 -79 -216 -19 -235 83 -13 73 -34 29
-34 -74 0 -63 0 -64 19 -47 18 17 22 17 68 -4 59 -27 157 -37 206 -21 20 7 50
28 67 47 26 30 30 43 30 91 0 91 -15 107 -192 207 -26 14 -49 35 -53 46 -17
55 53 85 130 55 47 -17 79 -53 90 -98 12 -46 22 -30 28 45 6 66 1 101 -10 71
-7 -18 -34 -16 -84 7 -52 23 -148 26 -195 6z"/>
<path d="M3977 9281 c-184 -37 -230 -51 -170 -51 17 0 36 -6 42 -14 12 -14 81
-351 81 -393 0 -14 -10 -28 -27 -37 -24 -13 -25 -15 -8 -16 27 0 388 71 397
79 4 3 4 39 1 79 -4 45 -9 68 -14 60 -5 -7 -9 -23 -9 -35 0 -12 -14 -38 -31
-57 -23 -27 -43 -37 -86 -46 -37 -8 -58 -9 -65 -2 -6 6 -18 49 -28 96 -17 84
-17 86 2 92 26 8 62 -18 78 -55 12 -29 38 -46 27 -18 -2 6 -12 58 -22 115 -10
56 -21 102 -25 102 -4 0 -10 -19 -13 -41 -6 -45 -21 -66 -52 -71 -17 -3 -21 8
-36 87 -10 50 -15 93 -11 97 4 4 33 10 64 14 65 8 100 -8 120 -52 12 -27 28
-32 28 -9 0 7 -5 37 -11 65 -8 36 -15 50 -27 49 -9 0 -101 -17 -205 -38z"/>
<path d="M5485 9265 c45 -32 45 -30 20 -122 -61 -229 -85 -307 -97 -315 -7 -4
-23 -6 -35 -3 -39 9 -25 -14 15 -24 20 -6 78 -22 127 -36 50 -13 93 -25 98
-25 15 0 6 16 -15 25 -28 12 -29 61 -4 148 14 47 21 57 34 52 10 -4 44 -12 77
-17 49 -9 67 -8 97 5 96 41 103 175 11 228 -27 16 -311 99 -336 99 -7 0 -3 -7
8 -15z m220 -81 c57 -22 14 -195 -49 -194 -39 1 -37 24 10 183 6 18 13 21 39
11z"/>
<path d="M3628 9197 c-64 -24 -74 -37 -29 -37 16 0 33 -6 39 -13 6 -7 29 -63
51 -126 38 -105 39 -112 18 -99 -12 8 -88 54 -169 101 l-147 87 -90 -32 c-90
-32 -112 -48 -68 -48 13 0 31 -6 40 -12 17 -13 137 -333 137 -365 0 -9 -10
-27 -22 -40 -15 -16 -17 -23 -7 -23 26 0 143 47 147 59 2 6 -3 9 -12 5 -9 -3
-27 -3 -40 0 -20 5 -32 29 -80 162 -31 86 -55 158 -54 160 2 1 101 -56 221
-127 202 -121 219 -129 241 -117 l24 13 -74 204 c-41 112 -74 211 -74 221 0
10 10 25 23 33 21 15 21 16 2 16 -11 -1 -46 -10 -77 -22z"/>
<path d="M5980 9135 c0 -3 12 -16 26 -29 l27 -22 -85 -190 c-84 -186 -85 -189
-116 -190 -17 0 -34 -3 -37 -6 -8 -8 238 -116 249 -110 6 3 0 10 -12 15 -12 6
-24 18 -27 27 -6 20 59 176 72 173 4 -1 11 -35 15 -75 4 -40 10 -97 13 -126
l7 -53 82 -38 c45 -21 107 -54 136 -74 56 -38 76 -41 46 -8 -25 27 -17 49 30
83 l41 30 57 -37 57 -36 -7 -47 c-8 -57 -22 -85 -37 -79 -7 3 -20 8 -29 12
-43 17 -11 -14 60 -60 139 -89 126 -83 118 -52 -4 16 10 124 34 269 41 243 41
257 6 258 -5 0 -84 -56 -175 -124 -211 -157 -215 -160 -245 -152 -31 8 -43 44
-51 162 l-7 91 39 6 c58 10 95 53 101 119 7 87 -10 101 -262 214 -127 57 -126
57 -126 49z m234 -136 c42 -33 35 -100 -17 -156 -27 -30 -107 -30 -107 -1 0
22 74 178 85 178 7 0 24 -9 39 -21z m366 -424 c-7 -36 -15 -65 -19 -65 -16 0
-82 53 -74 60 21 22 98 77 102 74 2 -2 -2 -33 -9 -69z"/>
<path d="M3028 8946 c-65 -34 -121 -65 -124 -69 -4 -4 10 -6 32 -4 l39 2 92
-175 c51 -96 93 -183 93 -192 0 -9 -10 -24 -22 -32 -12 -9 -19 -18 -16 -22 9
-9 249 117 242 127 -3 5 -14 5 -24 -1 -10 -5 -25 -7 -34 -4 -8 3 -57 88 -108
189 l-93 184 24 25 c14 14 22 28 20 30 -2 3 -57 -24 -121 -58z"/>
<path d="M2798 8808 c-2 -18 -16 -26 -66 -41 -48 -14 -75 -29 -112 -65 -74
-72 -80 -144 -16 -208 42 -42 92 -49 211 -30 106 17 138 8 143 -37 10 -89
-127 -139 -225 -81 -25 14 -47 24 -49 21 -3 -3 16 -37 42 -76 43 -65 57 -76
60 -50 1 5 2 13 3 18 0 5 27 17 59 26 73 21 146 68 172 110 27 43 27 117 0
161 -21 33 -90 74 -127 74 -11 0 -60 -7 -109 -15 -103 -18 -131 -14 -140 20
-20 79 116 137 202 86 20 -12 39 -20 42 -17 6 6 -70 126 -80 126 -4 0 -8 -10
-10 -22z"/>
<path d="M4505 8620 c-872 -68 -1651 -493 -2169 -1183 -311 -415 -499 -881
-572 -1417 -24 -171 -24 -555 0 -733 116 -885 588 -1641 1328 -2127 377 -248
842 -415 1296 -465 56 -6 62 -5 62 12 0 10 3 34 6 54 l6 35 -104 12 c-471 55
-955 250 -1351 545 -866 645 -1296 1715 -1117 2777 80 471 272 905 571 1290
92 119 310 343 427 439 398 326 853 535 1353 620 766 131 1572 -65 2192 -533
618 -466 1002 -1113 1124 -1896 26 -165 26 -635 0 -800 -70 -440 -218 -829
-449 -1175 -122 -184 -200 -278 -372 -451 -203 -202 -410 -360 -634 -481 -48
-25 -88 -47 -90 -48 -6 -5 42 -95 50 -95 5 0 50 23 101 52 1187 662 1770 2029
1432 3353 -96 377 -290 766 -544 1093 -148 190 -394 425 -604 575 -399 286
-873 471 -1362 531 -155 19 -440 27 -580 16z"/>
<path d="M2375 8525 c-56 -50 -62 -70 -13 -44 17 9 26 5 61 -33 97 -100 195
-219 199 -240 12 -63 -37 -131 -94 -131 -27 0 -44 12 -111 84 -143 151 -178
198 -167 219 24 44 5 38 -61 -21 -39 -35 -86 -76 -103 -91 -17 -14 -28 -29
-24 -34 5 -4 16 0 26 9 10 10 23 17 29 17 6 0 62 -57 124 -126 62 -69 125
-132 140 -140 58 -30 128 -12 199 52 54 49 70 82 70 143 0 56 2 52 -142 214
-86 97 -99 122 -77 144 6 6 10 16 8 22 -2 5 -31 -14 -64 -44z"/>
<path d="M6934 8479 c-43 -12 -130 -92 -156 -142 -26 -52 -28 -149 -3 -198 40
-78 111 -127 199 -136 42 -4 55 -2 76 16 l25 21 -51 -6 c-89 -11 -164 32 -164
93 0 64 115 214 193 252 56 27 90 26 124 -3 26 -23 28 -29 27 -100 0 -42 2
-76 5 -75 3 0 28 26 54 57 l49 57 -31 3 c-22 2 -35 11 -46 31 -58 113 -180
165 -301 130z"/>
<path d="M7313 8211 c-46 -41 -60 -74 -21 -47 35 25 83 20 119 -12 l32 -28
-157 -137 c-87 -75 -165 -137 -173 -137 -9 0 -24 7 -34 16 -9 8 -19 12 -22 7
-3 -5 34 -54 81 -110 83 -97 113 -124 97 -85 -21 47 -12 58 145 195 140 123
157 134 172 120 9 -8 22 -28 28 -44 11 -24 9 -34 -9 -70 -12 -23 -20 -44 -17
-47 8 -8 95 71 93 84 -2 13 -278 334 -287 334 -3 -1 -24 -18 -47 -39z"/>
<path d="M4535 8154 c-16 -2 -73 -9 -125 -15 -515 -58 -1044 -315 -1424 -693
-105 -104 -208 -223 -186 -214 8 4 56 25 107 47 50 22 171 67 268 100 l177 59
-54 9 -53 10 45 20 c25 11 99 35 165 54 l120 34 -55 5 -55 6 30 13 c52 22 124
31 246 31 135 0 118 14 139 -110 6 -36 18 -78 26 -95 l14 -30 -5 40 c-2 22 -7
85 -10 140 l-7 100 31 42 c30 41 137 133 155 133 8 0 7 -8 -10 -69 -6 -20 7
-13 83 43 l91 66 163 0 163 0 -28 -29 -27 -28 90 -18 c50 -10 91 -21 91 -25 0
-4 -11 -12 -25 -18 -14 -6 -25 -16 -25 -21 0 -5 20 -42 45 -82 25 -40 45 -85
45 -100 0 -15 -16 -83 -35 -150 -19 -68 -35 -128 -35 -133 0 -20 50 39 80 95
17 32 33 59 36 59 27 0 158 -91 309 -215 61 -51 125 -95 140 -99 56 -14 140
-60 185 -101 25 -23 66 -49 91 -58 25 -10 58 -30 73 -46 l27 -28 -105 5 c-114
5 -176 -2 -176 -21 0 -9 -140 -12 -608 -12 -670 0 -650 2 -783 -66 -59 -29
-179 -132 -179 -153 0 -6 10 -24 23 -39 l23 -29 79 79 c45 45 102 90 130 104
l50 24 630 3 630 2 0 -137 c0 -178 5 -253 23 -333 39 -173 129 -245 245 -197
18 8 38 12 45 10 6 -3 12 2 12 9 0 8 18 29 41 47 61 49 98 106 105 162 l7 48
45 -32 c25 -17 85 -69 133 -115 84 -80 90 -83 151 -93 86 -14 270 -76 286 -96
32 -43 4 -167 -54 -235 -44 -53 -74 -124 -74 -175 -1 -112 -56 -269 -103 -295
-12 -6 -55 -8 -106 -5 -82 4 -94 8 -261 85 -186 86 -266 112 -340 112 -51 0
-62 -5 -80 -39 -7 -13 -29 -42 -50 -65 l-38 -41 12 -54 c7 -30 20 -59 31 -67
30 -22 144 -17 284 13 135 29 349 39 371 17 21 -21 23 -79 4 -99 -15 -15 -29
-17 -95 -12 -88 7 -272 -11 -494 -48 -332 -55 -503 -122 -727 -285 -69 -50
-241 -217 -307 -297 l-42 -53 158 7 c87 3 238 2 337 -2 l178 -7 -43 -21 -44
-21 184 -7 c575 -23 820 -126 954 -401 56 -115 103 -304 73 -292 -9 4 -12 -13
-12 -65 1 -43 5 -67 11 -63 79 46 278 216 380 325 358 378 580 830 662 1349
25 164 25 566 -1 733 -41 267 -110 483 -231 730 -234 478 -610 862 -1086 1109
-239 124 -515 213 -779 251 -108 16 -485 29 -555 19z m1118 -1363 c29 -11 42
-47 52 -151 6 -53 3 -75 -14 -120 -26 -69 -26 -66 5 -74 26 -7 27 -9 21 -68
-5 -53 -10 -66 -40 -95 l-34 -35 -7 41 c-9 59 -26 50 -26 -14 0 -52 -2 -57
-32 -75 -66 -40 -106 -14 -139 91 -26 84 -44 299 -34 423 l7 99 108 -6 c59 -4
119 -11 133 -16z"/>
<path d="M5624 6770 c14 -48 18 -145 7 -173 -9 -24 -14 -26 -31 -17 -12 6 -35
10 -53 8 -25 -2 -33 -8 -35 -26 -2 -13 2 -30 8 -38 8 -9 9 -14 2 -14 -15 0
-25 18 -32 60 l-7 35 -8 -28 c-11 -41 16 -77 59 -77 18 0 36 3 40 8 4 4 21 12
38 18 23 7 35 21 49 55 32 78 21 161 -27 200 -16 13 -17 12 -10 -11z"/>
<path d="M1954 8101 c-35 -21 -230 -248 -221 -257 3 -3 16 2 30 11 24 16 26
15 84 -31 139 -113 249 -208 257 -221 5 -9 4 -25 -3 -39 -6 -13 -7 -24 -2 -24
10 0 183 207 211 252 24 40 27 114 4 146 -33 47 -104 65 -154 39 l-26 -14 1
54 c0 48 -4 58 -28 79 -36 31 -107 33 -153 5z m35 -106 c33 -17 62 -72 54
-103 -3 -12 -9 -22 -14 -22 -4 0 -38 25 -74 56 -53 45 -64 59 -54 70 15 18 53
18 88 -1z m164 -129 c66 -27 108 -106 72 -136 -17 -14 -23 -11 -100 54 -33 27
-62 52 -65 54 -6 5 39 42 51 42 5 0 24 -6 42 -14z"/>
<path d="M7685 7843 c16 -39 16 -49 -2 -65 -46 -40 -315 -218 -330 -218 -9 0
-25 7 -35 17 -41 37 -24 0 47 -106 71 -103 110 -144 83 -87 -6 14 -8 31 -5 38
6 16 312 229 338 235 10 3 25 -4 35 -16 10 -11 21 -18 25 -15 9 5 -142 233
-155 234 -4 0 -5 -8 -1 -17z"/>
<path d="M4458 7690 l-37 -31 -7 27 c-7 26 -8 26 -21 8 -8 -10 -31 -50 -52
-89 -34 -61 -39 -81 -44 -154 -5 -83 -5 -84 30 -138 20 -29 37 -52 39 -51 1 2
22 31 47 64 47 64 96 107 134 118 17 6 27 22 41 69 l18 62 -30 20 c-20 14 -31
29 -30 43 0 15 -7 24 -22 28 -15 4 -24 15 -26 30 l-3 25 -37 -31z"/>
<path d="M1527 7555 c-29 -59 -28 -62 4 -42 19 11 28 4 110 -82 50 -51 89 -94
87 -96 -3 -3 -198 22 -235 30 -14 3 -23 14 -25 33 -3 22 -13 9 -56 -82 -29
-60 -50 -112 -46 -115 3 -3 10 2 15 12 7 12 22 17 50 17 37 0 48 -7 110 -67
38 -36 67 -68 65 -71 -7 -7 -219 19 -238 29 -9 5 -18 19 -20 31 -3 17 -18 -6
-60 -88 -32 -62 -54 -114 -51 -118 3 -3 12 3 20 14 18 26 39 26 293 -5 244
-30 226 -29 234 -8 5 12 -25 49 -116 140 -97 98 -118 123 -100 123 12 0 88 -9
167 -20 80 -12 150 -18 155 -15 24 15 0 48 -155 210 -125 132 -165 180 -165
199 0 40 -13 31 -43 -29z"/>
<path d="M7704 7464 c-54 -19 -120 -76 -144 -125 -24 -45 -27 -143 -7 -192 40
-94 158 -164 215 -128 10 6 2 11 -24 16 -113 21 -169 103 -117 173 29 39 117
96 190 122 75 26 135 23 167 -10 31 -30 27 -97 -8 -151 -15 -22 -25 -43 -23
-46 3 -2 37 13 76 35 68 37 79 52 40 52 -12 0 -21 10 -25 28 -29 129 -60 178
-136 216 -60 30 -137 34 -204 10z"/>
<path d="M3857 7354 c-3 -4 12 -28 35 -55 44 -53 58 -58 35 -12 -18 34 -61 76
-70 67z"/>
<path d="M8115 7092 c4 -18 1 -33 -7 -39 -7 -6 -74 -32 -148 -58 -161 -57
-182 -67 -209 -101 -32 -41 -29 -143 5 -212 28 -57 89 -102 137 -102 14 0 96
25 182 55 l156 55 26 -26 c14 -14 27 -23 29 -21 5 5 -36 130 -47 142 -5 5 -9
-4 -9 -22 0 -17 -6 -35 -12 -40 -7 -6 -81 -34 -165 -63 -166 -57 -187 -58
-235 -13 -48 46 -46 104 5 138 12 8 93 39 180 69 l157 56 21 -21 c11 -11 23
-19 25 -16 7 6 -80 247 -89 247 -5 0 -6 -13 -2 -28z"/>
<path d="M1172 6723 c-17 -65 -43 -157 -56 -205 -24 -84 -22 -117 2 -63 8 16
20 25 34 25 13 0 106 -24 208 -53 l185 -52 3 -33 c2 -17 6 -32 10 -32 4 0 32
90 63 201 l56 200 -58 30 c-81 41 -103 38 -51 -6 28 -24 43 -47 48 -70 7 -38
-20 -145 -37 -145 -18 0 -164 43 -173 51 -5 5 -2 19 8 33 14 22 24 26 61 26
25 0 45 4 45 8 0 12 -220 75 -229 66 -3 -4 0 -9 7 -11 35 -13 72 -56 72 -84 0
-16 -3 -29 -7 -29 -12 1 -174 48 -178 52 -10 9 28 107 49 127 12 12 43 25 67
30 26 5 38 11 29 14 -12 5 -121 37 -125 37 0 0 -15 -53 -33 -117z"/>
<path d="M8309 6564 c-1 -5 -2 -18 -3 -29 -2 -30 -35 -40 -233 -71 -150 -23
-185 -25 -197 -14 -9 7 -16 19 -16 26 0 8 -4 14 -10 14 -13 0 -13 -6 1 -90 7
-38 16 -67 20 -64 5 3 9 13 9 23 0 10 7 24 16 32 14 11 354 73 361 65 2 -2
-80 -54 -182 -116 -176 -108 -202 -126 -193 -135 2 -2 98 -29 213 -58 116 -30
203 -57 195 -60 -31 -12 -333 -55 -346 -50 -8 3 -17 16 -20 29 -3 13 -11 24
-16 24 -6 0 -8 -10 -5 -22 3 -13 13 -71 23 -130 9 -60 21 -108 25 -108 5 0 9
11 9 24 0 14 5 28 11 31 13 8 354 64 392 65 21 0 30 -7 38 -26 17 -47 22 -17
9 68 -6 46 -14 90 -16 99 -3 11 -47 27 -149 54 -80 21 -145 41 -145 44 0 3 57
40 125 81 71 43 125 81 125 90 0 8 -7 58 -15 110 -15 87 -23 117 -26 94z"/>
<path d="M1066 6289 c-8 -76 -3 -98 13 -55 9 23 15 26 58 25 27 0 88 -6 138
-12 l90 -12 -165 -105 -165 -106 -12 -94 c-7 -51 -10 -96 -7 -99 4 -3 9 0 11
7 10 26 36 42 71 42 47 0 331 -37 355 -46 10 -3 21 -20 24 -36 9 -47 21 -20
28 67 7 79 3 88 -19 43 -6 -13 -20 -24 -31 -26 -25 -5 -325 29 -325 37 1 3 87
60 193 126 204 128 237 153 237 183 0 17 -21 21 -222 45 -227 28 -248 34 -248
74 0 7 -4 13 -9 13 -4 0 -12 -32 -15 -71z"/>
<path d="M6150 6075 c-12 -32 0 -106 25 -155 19 -37 19 -40 -5 -40 -20 0 -80
-26 -80 -34 0 -3 39 -23 87 -46 80 -39 89 -41 112 -29 32 19 113 170 114 214
2 64 -54 100 -172 111 l-70 7 -11 -28z"/>
<path d="M5355 5801 c-22 -10 -62 -35 -89 -55 -26 -21 -63 -40 -81 -43 -28 -5
-38 -14 -63 -62 -16 -31 -33 -74 -36 -96 l-7 -40 63 67 c37 40 74 70 91 74 16
4 34 18 42 34 18 35 93 73 191 96 66 16 73 20 58 31 -25 18 -122 15 -169 -6z"/>
<path d="M8177 5655 c-15 -104 41 -136 124 -70 51 40 64 43 79 15 8 -15 6 -24
-10 -40 -11 -11 -27 -20 -35 -20 -8 0 -15 -4 -15 -10 0 -5 8 -10 18 -10 9 0
26 -3 37 -6 18 -4 20 1 23 52 2 47 -1 61 -19 81 -30 31 -67 29 -115 -7 -21
-16 -47 -30 -56 -30 -30 0 -21 38 13 59 30 18 30 18 7 25 -40 10 -45 7 -51
-39z"/>
<path d="M1026 5595 c2 -110 3 -114 29 -140 18 -19 35 -25 65 -25 37 0 48 7
100 56 42 40 65 55 81 52 55 -8 50 -80 -7 -104 -20 -8 -35 -17 -33 -19 2 -2
27 -7 54 -12 l50 -9 -3 75 c-4 82 -18 115 -57 133 -36 16 -72 2 -129 -51 -67
-62 -81 -67 -112 -36 -18 18 -23 32 -19 48 9 29 51 67 76 67 41 0 16 18 -38
27 l-58 9 1 -71z"/>
<path d="M8165 5455 c-6 -46 -4 -59 10 -75 26 -28 66 -25 114 11 49 35 76 35
76 -1 0 -18 -9 -29 -33 -42 -36 -17 -34 -22 15 -32 27 -6 32 -4 31 11 0 10 2
34 6 53 6 28 3 41 -14 63 -28 35 -72 36 -122 2 -47 -32 -70 -33 -66 -3 2 14
15 29 33 37 l30 15 -25 7 c-46 13 -48 10 -55 -46z"/>
<path d="M1230 5365 c0 -18 -14 -18 -97 -4 -67 12 -93 4 -93 -28 0 -18 58 -78
67 -69 4 3 -2 13 -13 20 -30 22 -15 25 68 13 60 -8 78 -15 81 -29 6 -22 27
-24 27 -3 0 13 7 15 38 9 l37 -7 -45 50 c-50 56 -70 70 -70 48z"/>
<path d="M8168 5323 c-46 -11 -26 -119 33 -175 60 -57 125 -63 147 -12 18 37
14 75 -9 113 -24 40 -33 37 -17 -7 15 -40 2 -67 -33 -67 -21 0 -25 6 -29 45
-9 70 -47 112 -92 103z m53 -82 c36 -37 40 -68 7 -50 -34 17 -68 51 -68 66 0
22 30 14 61 -16z"/>
<path d="M1080 5212 c-29 -23 -20 -56 22 -82 30 -18 30 -18 7 -22 -37 -5 -36
-40 2 -72 17 -15 34 -24 37 -21 3 3 -3 12 -14 21 -17 14 -11 15 79 9 l97 -6 0
25 c0 14 -4 26 -10 26 -5 0 -7 13 -4 30 5 25 1 35 -26 60 -53 49 -149 66 -190
32z m145 -53 c58 -15 74 -33 44 -50 -27 -14 -120 3 -139 26 -28 33 15 44 95
24z"/>
<path d="M8117 5073 c-14 -13 -6 -51 18 -87 26 -39 22 -45 -13 -20 -13 9 -25
14 -28 12 -2 -3 -7 -26 -10 -52 -7 -45 -6 -47 12 -36 16 10 31 5 99 -33 70
-40 81 -43 87 -29 13 33 8 50 -22 62 -34 14 -124 106 -116 119 3 5 34 -6 68
-25 35 -18 71 -34 80 -34 22 0 33 41 19 67 -13 26 -41 49 -41 35 0 -6 5 -14
10 -17 6 -3 10 -11 10 -16 0 -6 -29 6 -63 26 -61 34 -96 43 -110 28z"/>
<path d="M1306 4981 c-5 -7 -42 -11 -103 -11 -94 0 -95 0 -89 -22 3 -13 6 -26
6 -30 0 -5 19 -8 43 -9 23 0 62 -6 87 -12 41 -11 45 -14 42 -39 -3 -25 0 -28
28 -28 35 0 49 22 30 45 -7 9 -34 21 -59 28 l-46 12 52 5 51 5 -17 34 c-11 21
-21 30 -25 22z"/>
<path d="M7962 4881 c-8 -4 -12 -19 -10 -32 2 -18 9 -24 28 -24 19 0 26 6 28
24 3 20 -11 41 -28 41 -3 0 -11 -4 -18 -9z"/>
<path d="M8050 4818 c0 -13 -3 -34 -7 -47 -5 -20 -3 -22 16 -16 16 5 38 -4 86
-35 35 -23 72 -40 82 -38 25 4 29 60 7 93 -19 30 -31 27 -14 -4 16 -32 -1 -26
-80 24 -39 25 -75 45 -80 45 -6 0 -10 -10 -10 -22z"/>
<path d="M1340 4800 c0 -17 -8 -19 -87 -22 -88 -3 -88 -3 -91 -30 -3 -22 3
-32 30 -48 41 -25 61 -26 29 -1 -21 16 -21 19 -6 24 9 4 46 7 81 7 48 0 66 -4
70 -15 4 -8 12 -15 20 -15 8 0 14 7 14 15 0 10 11 15 33 16 29 0 30 1 13 12
-11 7 -36 27 -56 45 -43 37 -50 39 -50 12z"/>
<path d="M8007 4676 c-42 -102 1 -141 110 -100 23 9 49 14 58 11 35 -14 3 -67
-41 -67 -34 0 -30 -13 9 -32 l33 -16 18 59 c18 54 18 60 2 83 -22 35 -58 42
-112 21 -48 -18 -74 -15 -74 9 0 18 14 27 53 35 l29 6 -34 16 -34 17 -17 -42z"/>
<path d="M1390 4666 c0 -15 -49 -26 -116 -26 -22 0 -49 -6 -59 -14 -17 -12
-18 -17 -6 -39 8 -14 34 -34 60 -45 39 -17 42 -21 20 -21 -57 -2 -59 -60 -3
-81 37 -14 53 -11 25 4 l-23 13 23 6 c13 4 57 7 97 7 39 0 72 2 72 4 0 3 -4
16 -10 30 -8 23 -15 26 -57 26 -53 0 -121 16 -142 34 -11 9 -5 12 30 18 24 3
65 7 92 7 53 1 56 8 26 57 -22 37 -29 41 -29 20z"/>
<path d="M7951 4504 c-11 -25 -8 -30 39 -80 47 -50 77 -100 66 -112 -3 -3 -31
15 -61 39 -96 76 -89 75 -103 11 -9 -39 -8 -42 8 -37 13 4 38 -9 78 -40 41
-32 68 -46 83 -43 33 4 36 45 8 100 -20 40 -20 42 -2 26 49 -44 90 -1 59 61
-20 38 -29 40 -20 4 7 -27 4 -26 -52 21 -32 27 -66 56 -75 63 -13 11 -17 9
-28 -13z"/>
<path d="M1486 4416 c6 -16 -1 -18 -165 -40 -73 -10 -111 -11 -124 -4 -10 5
-20 8 -21 6 -2 -2 8 -28 23 -58 16 -36 26 -49 29 -38 2 10 16 21 30 24 15 3
33 7 39 10 7 2 19 -12 27 -31 28 -67 145 -97 214 -55 41 25 43 60 5 90 -20 16
-24 23 -14 29 10 7 8 16 -11 45 -23 36 -42 49 -32 22z m19 -90 c27 -20 13 -41
-39 -56 -51 -14 -108 -7 -127 16 -18 21 -2 32 61 43 79 13 84 12 105 -3z"/>
<path d="M7748 4293 c-27 -32 -100 -173 -89 -173 6 0 11 5 11 10 0 29 43 0
132 -87 78 -77 98 -103 95 -120 -8 -42 15 -11 59 80 25 51 44 105 44 123 0 70
-81 114 -129 70 -19 -17 -19 -17 -14 23 8 56 -16 91 -61 91 -19 0 -39 -7 -48
-17z m56 -74 c27 -32 32 -54 16 -79 -8 -12 -18 -7 -56 31 -42 43 -45 47 -29
62 24 24 40 21 69 -14z m130 -100 c29 -34 31 -53 13 -86 -12 -21 -13 -21 -64
28 -45 43 -51 53 -43 70 17 30 63 25 94 -12z"/>
<path d="M1491 4184 c-106 -53 -143 -172 -87 -282 29 -57 48 -75 106 -101 47
-21 120 -28 120 -11 0 5 -7 7 -14 4 -8 -3 -39 1 -69 10 -96 28 -170 135 -151
219 16 79 65 128 150 153 46 13 63 14 106 3 65 -15 132 -78 148 -140 22 -82
-35 -165 -127 -184 -37 -7 -95 8 -114 32 -19 23 5 36 100 57 45 9 81 21 81 26
0 6 -9 19 -19 29 -11 11 -21 30 -23 43 -5 37 -61 60 -131 55 -69 -6 -107 -28
-107 -62 0 -28 34 -55 68 -55 l24 0 -23 -19 c-21 -17 -22 -20 -9 -51 41 -98
209 -92 278 10 50 74 12 196 -79 257 -62 41 -155 44 -228 7z m193 -143 c17
-26 -84 -61 -139 -47 -34 9 -32 24 8 41 36 16 123 20 131 6z"/>
<path d="M7612 3858 c-60 -78 -38 -118 67 -118 73 0 96 -12 80 -42 -7 -13 -21
-18 -52 -18 l-42 0 27 -27 27 -26 28 33 c50 59 55 89 18 126 -24 24 -30 25
-85 19 -51 -6 -61 -4 -66 10 -9 23 10 38 47 37 l31 -1 -23 25 c-12 13 -23 24
-24 24 0 0 -15 -19 -33 -42z"/>
<path d="M1913 3867 c9 -24 -18 -38 -152 -82 -95 -31 -118 -36 -134 -26 -10 7
-20 11 -22 9 -7 -7 111 -162 138 -182 58 -43 137 -15 137 51 0 36 6 39 34 18
43 -32 116 -4 116 44 0 11 -23 53 -51 95 -49 74 -79 107 -66 73z m65 -114 c4
-24 -31 -53 -64 -53 -22 0 -73 34 -64 43 11 9 96 36 110 34 8 -1 16 -12 18
-24z m-142 -38 c16 -40 -24 -85 -75 -85 -20 0 -71 36 -71 50 0 8 102 48 128
49 7 1 15 -6 18 -14z"/>
<path d="M7505 3704 c-17 -18 -19 -45 -5 -94 l9 -35 -28 34 -29 35 -21 -42
c-25 -49 -26 -53 -7 -46 10 4 34 -20 71 -71 55 -74 58 -76 76 -59 25 22 24 27
-10 74 -29 40 -57 127 -46 139 7 6 19 -8 80 -83 22 -28 35 -36 48 -31 22 9 32
46 22 83 l-8 27 -6 -25 c-6 -23 -9 -21 -49 35 -48 67 -73 82 -97 59z"/>
<path d="M5860 3686 c-31 -17 -76 -72 -130 -161 l-42 -69 7 -105 6 -106 -37
-29 -37 -29 6 29 c4 16 12 86 19 156 10 103 9 129 -1 142 -39 47 -118 -12
-266 -199 -15 -19 -16 -18 -11 24 6 57 -7 81 -43 81 -36 0 -88 -39 -178 -133
-57 -59 -73 -81 -73 -105 0 -75 -21 -113 -91 -163 -26 -18 -26 -18 8 46 38 73
77 214 95 346 10 79 10 92 -4 105 -28 28 -71 7 -187 -92 l-111 -95 0 -50 c0
-27 -2 -49 -5 -49 -3 0 -35 14 -72 30 -121 55 -267 62 -478 24 -106 -20 -101
-23 76 -54 83 -14 187 -24 312 -27 l187 -6 0 -33 c0 -18 -5 -55 -11 -83 l-10
-49 -110 -27 c-165 -41 -203 -76 -179 -163 8 -32 20 -48 44 -63 27 -16 35 -29
46 -74 7 -30 15 -55 17 -55 2 0 25 5 50 11 49 13 48 11 28 92 -7 26 -7 25 57
43 18 5 20 0 83 -231 15 -55 32 -106 37 -113 15 -18 52 -15 79 6 l22 19 -47
159 c-26 87 -49 166 -52 175 -4 13 12 21 80 38 47 11 88 21 91 21 11 0 -28
-66 -59 -99 -25 -27 -27 -32 -11 -28 11 4 42 11 68 18 42 10 55 20 101 78 93
116 129 213 147 394 11 116 23 157 45 157 22 0 25 -34 10 -146 -25 -191 -78
-316 -179 -421 -17 -18 -26 -33 -19 -33 19 0 87 66 108 105 14 26 29 39 57 47
20 6 40 9 43 6 8 -9 -24 -68 -53 -100 l-25 -26 60 15 c34 8 69 25 80 37 48 53
114 164 132 223 21 69 45 277 37 321 -6 31 19 85 36 79 9 -3 11 -41 10 -133
-3 -200 -41 -315 -151 -453 -25 -30 -29 -40 -15 -33 23 13 86 81 103 111 15
29 25 20 39 -34 6 -25 12 -45 14 -45 1 0 22 6 47 14 42 12 45 15 42 45 -2 17
0 31 5 31 4 0 19 10 33 21 l25 20 -25 -12 -25 -12 22 24 c33 37 91 144 108
201 21 73 28 191 17 282 -7 55 -7 86 0 102 28 62 48 4 48 -140 0 -62 -5 -139
-11 -171 -12 -64 -72 -194 -112 -241 -17 -19 -22 -35 -17 -44 4 -8 24 -84 45
-168 21 -84 44 -159 52 -167 20 -20 46 -19 73 3 22 18 23 22 11 68 -23 93 -82
309 -91 331 -7 17 -3 36 15 75 34 76 55 212 55 364 0 114 -2 133 -18 147 -22
20 -20 20 -52 3z m-790 -240 c0 -70 -24 -206 -50 -281 -25 -74 -75 -150 -144
-221 -78 -81 -85 -65 -11 26 35 44 71 93 79 109 26 50 55 168 66 274 12 114
22 147 45 147 12 0 15 -12 15 -54z m279 -340 l-22 -21 6 25 c4 14 12 59 19
100 l13 75 3 -79 c3 -71 1 -82 -19 -100z"/>
<path d="M6066 3630 c-9 -48 -8 -54 9 -40 17 14 19 38 6 58 -6 10 -10 4 -15
-18z"/>
<path d="M1923 3540 c-46 -10 -82 -36 -89 -64 -12 -48 52 -107 113 -105 l28 1
-32 14 c-45 19 -60 50 -37 75 16 18 17 18 46 -6 50 -42 130 -45 143 -5 17 55
-86 109 -172 90z m132 -50 c0 -22 -60 -36 -93 -20 l-27 13 30 13 c38 17 90 14
90 -6z"/>
<path d="M7357 3512 c-10 -10 -17 -23 -17 -29 0 -5 -11 -15 -25 -21 -22 -10
-25 -17 -25 -69 0 -67 29 -128 73 -153 36 -20 61 -4 65 42 3 30 6 35 23 31 10
-3 26 0 34 7 17 14 21 90 4 90 -6 0 -9 -7 -6 -15 4 -8 2 -17 -3 -20 -4 -3 -30
31 -58 75 -47 76 -50 79 -65 62z m6 -80 c21 -23 47 -85 47 -112 0 -53 -68 14
-89 88 -13 45 11 59 42 24z"/>
<path d="M2122 3414 c2 -13 -18 -30 -72 -61 -41 -23 -79 -45 -85 -47 -5 -2 -1
-13 11 -25 l20 -22 55 25 c30 13 69 27 87 31 28 6 32 4 32 -14 0 -25 41 -29
60 -6 31 37 -29 60 -94 35 -39 -15 -31 -3 14 20 22 11 40 24 40 28 0 4 -16 17
-36 30 -30 20 -35 21 -32 6z"/>
<path d="M2354 3333 c5 -16 -17 -32 -129 -97 -74 -43 -135 -80 -135 -81 0 -2
12 -10 26 -20 25 -16 28 -16 69 6 24 13 47 21 50 17 4 -3 -4 -24 -16 -45 -32
-55 -22 -73 38 -72 26 1 38 4 26 6 -29 6 -29 10 7 67 30 46 32 48 66 41 20 -3
43 -9 52 -12 9 -3 1 10 -17 30 -39 42 -52 46 -44 17 5 -18 0 -20 -53 -20 l-59
1 40 25 c22 13 66 39 98 57 31 17 57 34 57 38 0 3 -18 19 -41 33 -35 24 -40
25 -35 9z"/>
<path d="M7187 3329 c-58 -34 -60 -192 -4 -237 33 -27 57 -24 92 11 30 30 35
42 35 79 l-1 43 -14 -40 c-8 -22 -15 -41 -15 -42 0 -2 -10 -3 -23 -3 -42 0
-47 18 -21 68 28 52 30 79 8 110 -17 24 -30 27 -57 11z m31 -102 c-2 -17 -8
-32 -15 -34 -15 -5 -38 70 -29 94 7 17 9 16 27 -6 13 -15 19 -36 17 -54z"/>
<path d="M6979 3267 l-36 -32 8 -85 c4 -47 8 -105 8 -130 l1 -44 -73 72 c-40
39 -76 72 -81 72 -13 0 -86 -61 -86 -72 0 -6 7 -5 16 3 22 18 30 6 89 -136 41
-99 46 -119 37 -140 -16 -34 -4 -31 43 11 28 25 34 34 19 30 -12 -4 -26 -1
-32 6 -10 13 -92 196 -92 207 0 3 43 -37 95 -89 109 -109 101 -117 84 85 -6
70 -9 128 -7 131 2 2 24 -44 48 -103 37 -90 41 -109 31 -125 -21 -34 -7 -29
49 17 62 51 69 62 40 61 -18 -1 -30 20 -76 127 -44 103 -53 131 -44 147 15 29
0 24 -41 -13z"/>
<path d="M2395 3068 c-46 -16 -85 -58 -85 -89 0 -43 50 -79 108 -78 l47 1 -38
10 c-44 12 -63 39 -47 68 13 24 14 24 46 3 31 -20 107 -22 129 -3 59 49 -71
121 -160 88z m130 -27 c9 -15 -36 -41 -71 -41 -45 0 -49 12 -12 32 36 19 74
23 83 9z"/>
<path d="M2692 3043 c2 -12 -30 -42 -107 -101 -60 -46 -111 -90 -113 -98 -9
-37 60 -60 98 -33 12 9 11 10 -7 6 -49 -11 -28 13 87 98 66 49 120 93 120 97
0 4 -18 17 -41 28 -37 19 -40 19 -37 3z"/>
<path d="M2664 2841 c-65 -40 -81 -92 -40 -130 28 -26 95 -38 122 -22 16 9 14
10 -17 11 -46 0 -70 25 -58 59 7 17 14 21 27 16 82 -34 162 -16 162 36 0 46
-136 67 -196 30z m146 -9 c0 -27 -70 -59 -96 -44 -13 7 -11 12 18 30 33 22 78
29 78 14z"/>
<path d="M2879 2772 c9 -17 3 -35 -32 -101 -44 -83 -70 -121 -85 -121 -5 0
-14 12 -21 26 -13 29 -38 29 -55 1 -17 -28 18 -50 69 -42 97 15 295 124 295
163 0 15 -38 35 -50 27 -6 -3 -10 -22 -10 -40 0 -31 -5 -37 -50 -60 -27 -14
-52 -25 -55 -25 -3 0 11 31 30 70 48 96 48 102 -13 115 -32 7 -33 6 -23 -13z"/>
<path d="M3177 2738 c5 -32 -184 -232 -210 -223 -9 4 -17 4 -17 1 0 -3 53 -31
117 -61 l117 -56 36 37 c32 33 33 35 10 28 -43 -15 -128 -11 -145 7 -15 14 -8
24 75 116 92 103 109 117 135 107 8 -4 15 -4 15 -1 0 4 -126 67 -135 67 -1 0
0 -10 2 -22z"/>
<path d="M3358 2510 c-52 -28 -88 -78 -88 -123 0 -30 4 -38 24 -43 14 -3 38 2
57 12 30 15 33 15 20 1 -7 -9 -11 -24 -7 -32 8 -21 79 -20 97 1 12 15 11 16
-9 10 -12 -4 -22 -4 -22 -1 0 4 25 39 55 78 47 60 53 72 39 80 -8 5 -24 7 -34
4 -12 -3 -20 2 -23 14 -7 25 -60 25 -109 -1z m97 -10 c16 -26 -67 -120 -106
-120 -10 0 -19 3 -19 6 0 26 84 124 106 124 7 0 16 -4 19 -10z"/>
<path d="M3565 2446 c18 -13 17 -16 -9 -101 -15 -48 -25 -89 -23 -91 2 -3 29
14 58 37 30 23 60 47 68 53 15 11 14 -8 -5 -102 l-7 -34 69 35 c86 43 136 92
132 127 -2 19 -9 25 -28 25 -23 0 -25 -3 -22 -36 2 -31 -3 -41 -28 -63 -37
-30 -53 -33 -46 -8 11 41 27 134 23 138 -2 2 -15 -4 -28 -14 -13 -10 -41 -31
-61 -46 l-37 -28 9 34 c6 18 10 45 10 60 0 27 -2 28 -47 28 -42 0 -45 -1 -28
-14z"/>
<path d="M5930 2423 l-75 -14 0 -194 c0 -188 1 -195 20 -195 57 1 61 6 57 80
-4 69 -4 69 24 75 59 13 83 28 98 60 21 43 21 134 0 163 -25 36 -44 40 -124
25z m80 -113 c0 -24 -6 -33 -26 -40 -44 -17 -54 -13 -54 24 0 37 9 44 53 45
24 1 27 -3 27 -29z"/>
<path d="M5636 2351 l-69 -16 -4 -155 c-1 -85 -5 -176 -7 -201 l-5 -46 86 23
c90 24 119 42 135 84 15 39 12 109 -6 129 -15 16 -15 20 0 50 21 42 14 119
-12 138 -22 16 -30 15 -118 -6z m74 -100 c0 -25 -5 -30 -41 -39 l-40 -10 3 31
c3 31 11 36 71 46 4 0 7 -12 7 -28z m10 -151 c0 -31 -13 -42 -62 -54 -27 -6
-28 -5 -28 33 0 43 7 49 58 50 29 1 32 -2 32 -29z"/>
<path d="M5428 2303 c-16 -4 -18 -18 -18 -106 l-1 -102 -39 75 c-22 42 -37 83
-34 93 5 15 1 17 -23 11 -70 -17 -65 -4 -70 -190 -2 -93 -8 -184 -13 -201 -9
-36 -3 -39 49 -24 23 6 23 8 22 124 -1 64 0 117 3 117 14 0 95 -180 89 -196
-5 -14 -3 -16 11 -11 10 4 28 10 41 13 23 6 23 7 25 167 0 89 5 179 9 200 8
34 7 37 -13 36 -11 -1 -29 -3 -38 -6z"/>
</g>
</svg>
